<svg width="20" height="22" viewBox="0 0 20 22" fill="none" xmlns="http://www.w3.org/2000/svg">
<path d="M12.0642 0.945615C12.1041 0.855586 12.1615 0.774315 12.2329 0.706442C12.3042 0.63857 12.3883 0.585426 12.4802 0.550045C12.5722 0.514665 12.6702 0.497742 12.7687 0.500242C12.8671 0.502741 12.9641 0.524615 13.0542 0.564615C13.2282 0.642615 16.0212 1.97311 17.8947 5.10961C18.8412 6.69961 19.2402 8.32711 19.4037 9.56911C19.4971 10.2816 19.5297 11.0006 19.5012 11.7186V11.7576V11.7516C19.5012 11.9505 19.4221 12.1413 19.2815 12.2819C19.1408 12.4226 18.9501 12.5016 18.7512 12.5016C18.5523 12.5016 18.3615 12.4226 18.2208 12.2819C18.0802 12.1413 18.0012 11.9505 18.0012 11.7516V11.6766C18.0237 11.1621 18.1362 8.44261 16.6062 5.87911C15.6861 4.35234 14.4031 3.07653 12.8712 2.16511C12.6147 2.01511 12.4572 1.94011 12.4452 1.93561C12.3551 1.89564 12.2739 1.83831 12.206 1.76692C12.1381 1.69553 12.085 1.61147 12.0496 1.51954C12.0142 1.4276 11.9973 1.3296 11.9998 1.23113C12.0023 1.13265 12.0242 1.03563 12.0642 0.945615ZM12.1422 4.56511C12.2588 4.40404 12.4345 4.29585 12.6309 4.26435C12.8272 4.23285 13.028 4.2806 13.1892 4.39711C13.1847 4.39411 13.5432 4.61911 13.9692 5.01211C14.3997 5.40511 14.9292 5.99161 15.3522 6.77761C15.8129 7.63956 16.0854 8.5895 16.1517 9.56461C16.1577 9.65461 16.1592 9.72511 16.1607 9.78061V9.87511C16.1607 10.074 16.0816 10.2648 15.941 10.4054C15.8003 10.5461 15.6096 10.6251 15.4107 10.6251C15.2118 10.6251 15.021 10.5461 14.8803 10.4054C14.7397 10.2648 14.6607 10.074 14.6607 9.87511V9.87061C14.6442 9.02326 14.4216 8.19266 14.0121 7.45066C13.6025 6.70867 13.0184 6.07763 12.3102 5.61211C12.1491 5.49552 12.0409 5.31973 12.0094 5.1234C11.9779 4.92706 12.0257 4.72625 12.1422 4.56511ZM0.805166 15.0606C0.0399089 13.6846 -0.153777 12.0628 0.265886 10.5453C0.68555 9.02771 1.68493 7.73591 3.04845 6.94855C4.41197 6.16118 6.03035 5.94135 7.5545 6.33646C9.07864 6.73158 10.3864 7.70998 11.1957 9.06061L12.4257 11.1906L15.2847 13.2711C15.3856 13.3446 15.4666 13.4422 15.5203 13.5549C15.574 13.6677 15.5987 13.7921 15.5921 13.9168C15.5856 14.0415 15.548 14.1626 15.4828 14.2691C15.4175 14.3756 15.3268 14.4641 15.2187 14.5266L11.4237 16.7166L11.4297 16.7211L7.32267 19.0911V19.0866L3.52767 21.2766C3.41946 21.3393 3.29728 21.374 3.17226 21.3775C3.04723 21.3809 2.92333 21.3531 2.81182 21.2964C2.70031 21.2398 2.60473 21.1561 2.5338 21.0531C2.46286 20.9501 2.41882 20.831 2.40567 20.7066L2.03517 17.1921L0.805166 15.0606ZM12.3747 17.9076L7.87767 20.5026C8.26918 20.9946 8.82429 21.3298 9.44203 21.4471C10.0598 21.5644 10.6991 21.456 11.2437 21.1417C11.7883 20.8275 12.202 20.3282 12.4096 19.7346C12.6171 19.1411 12.6047 18.4928 12.3747 17.9076Z" fill="#C6D1E2"/>
</svg>
