<svg width="16" height="20" viewBox="0 0 16 20" fill="none" xmlns="http://www.w3.org/2000/svg">
<path fill-rule="evenodd" clip-rule="evenodd" d="M3.1998 0.399902C2.56329 0.399902 1.95284 0.652759 1.50275 1.10285C1.05266 1.55293 0.799805 2.16338 0.799805 2.7999V17.1999C0.799805 17.8364 1.05266 18.4469 1.50275 18.897C1.95284 19.347 2.56329 19.5999 3.1998 19.5999H12.7998C13.4363 19.5999 14.0468 19.347 14.4969 18.897C14.9469 18.4469 15.1998 17.8364 15.1998 17.1999V2.7999C15.1998 2.16338 14.9469 1.55293 14.4969 1.10285C14.0468 0.652759 13.4363 0.399902 12.7998 0.399902H3.1998ZM7.9998 17.1999C8.31806 17.1999 8.62329 17.0735 8.84833 16.8484C9.07338 16.6234 9.19981 16.3182 9.19981 15.9999C9.19981 15.6816 9.07338 15.3764 8.84833 15.1514C8.62329 14.9263 8.31806 14.7999 7.9998 14.7999C7.68155 14.7999 7.37632 14.9263 7.15128 15.1514C6.92623 15.3764 6.7998 15.6816 6.7998 15.9999C6.7998 16.3182 6.92623 16.6234 7.15128 16.8484C7.37632 17.0735 7.68155 17.1999 7.9998 17.1999Z" fill="#C6D1E2"/>
</svg>
