<svg width="24" height="24" viewBox="0 0 24 24" fill="none" xmlns="http://www.w3.org/2000/svg">
<path d="M18 22H9C8.46957 22 7.96086 21.7893 7.58579 21.4142C7.21071 21.0391 7 20.5304 7 20V19C7 18.7348 7.10536 18.4804 7.29289 18.2929C7.48043 18.1054 7.73478 18 8 18C8.26522 18 8.51957 18.1054 8.70711 18.2929C8.89464 18.4804 9 18.7348 9 19V20H18L18 4H9V5C9 5.26522 8.89464 5.51957 8.70711 5.70711C8.51957 5.89464 8.26522 6 8 6C7.73478 6 7.48043 5.89464 7.29289 5.70711C7.10536 5.51957 7 5.26522 7 5V4C7 3.46957 7.21071 2.96086 7.58579 2.58579C7.96086 2.21071 8.46957 2 9 2H18C18.5304 2 19.0391 2.21071 19.4142 2.58579C19.7893 2.96086 20 3.46957 20 4L20 20C20 20.5304 19.7893 21.0391 19.4142 21.4142C19.0391 21.7893 18.5304 22 18 22Z" fill="#1560BD"/>
<path d="M7.205 7.70487C6.815 7.31487 6.185 7.31487 5.795 7.70487L2.207 11.2929C2.01953 11.4804 1.91421 11.7347 1.91421 11.9999C1.91421 12.265 2.01953 12.5193 2.207 12.7069L5.795 16.2949C5.98509 16.4667 6.23392 16.5589 6.49007 16.5524C6.74621 16.546 6.99008 16.4413 7.17126 16.2601C7.35244 16.079 7.45708 15.8351 7.46354 15.5789C7.47001 15.3228 7.37781 15.074 7.206 14.8839L5.33 12.9999L14 12.9999C14.2652 12.9999 14.5196 12.8945 14.7071 12.707C14.8946 12.5194 15 12.2651 15 11.9999C15 11.7347 14.8946 11.4803 14.7071 11.2928C14.5196 11.1052 14.2652 10.9999 14 10.9999H5.33L7.206 9.11587C7.39267 8.92847 7.49739 8.67468 7.4972 8.41017C7.49701 8.14566 7.39193 7.89202 7.205 7.70487Z" fill="#1560BD"/>
</svg>
