<svg width="284" height="311" viewBox="0 0 284 311" fill="none" xmlns="http://www.w3.org/2000/svg">
<g opacity="0.3">
<path d="M284.563 300.085L299.555 285.069L78.607 64.1216L63.6156 79.113L284.563 300.085Z" fill="#2D60B7"/>
<path d="M68.4357 68.9653C73.885 63.5161 78.5834 64.1216 78.5834 64.1216L117.624 103.162C115.323 102.654 111.279 104.615 107.67 108.2C104.086 111.784 102.124 115.829 102.633 118.154L63.592 79.113C63.6162 79.113 62.9865 74.4388 68.4357 68.9653Z" fill="url(#paint0_linear_1027_16105)"/>
<path d="M249.931 250.46C255.38 245.011 260.079 245.617 260.079 245.617L299.24 284.754C296.939 284.246 292.774 286.11 289.165 289.695C285.581 293.279 283.716 297.469 284.225 299.77L245.087 260.608C245.087 260.608 244.482 255.91 249.931 250.46Z" fill="url(#paint1_linear_1027_16105)"/>
<path d="M284.329 299.856C282.494 298.021 284.365 293.176 288.508 289.033C292.651 284.891 297.496 283.02 299.331 284.855C301.166 286.69 299.295 291.535 295.152 295.678C291.01 299.821 286.164 301.691 284.329 299.856Z" fill="#9E9E9E"/>
<path opacity="0.85" d="M78.6557 64.1697L243.198 228.736C245.038 230.577 243.174 235.42 239.032 239.538C234.891 243.679 230.047 245.544 228.231 243.703L63.6643 79.1369C63.6643 79.1369 62.6471 74.5837 68.4596 68.9408C74.2721 63.2978 78.6557 64.1697 78.6557 64.1697Z" fill="url(#paint2_linear_1027_16105)"/>
<path opacity="0.22" d="M134.915 120.43L299.458 284.996C301.298 286.837 299.433 291.681 295.292 295.798C291.151 299.939 286.307 301.804 284.49 299.964L119.9 135.421C119.9 135.421 118.883 130.868 124.695 125.225C130.532 119.607 134.915 120.43 134.915 120.43Z" fill="url(#paint3_linear_1027_16105)"/>
<path d="M145.136 45.6182L130.654 31.1838C129.854 30.3846 128.474 31.0385 128.595 32.1768L130.46 49.1057C130.532 49.7596 130.072 50.3651 129.394 50.4377L108.663 52.908C107.452 53.0533 107.186 54.7002 108.324 55.2088L129.927 64.8721C130.242 65.0174 130.484 65.308 130.581 65.6471L136.829 87.0807C137.12 88.1221 138.525 88.2674 139.033 87.3229L148.697 69.7643C148.811 69.56 148.981 69.3923 149.186 69.2808C149.392 69.1693 149.625 69.1186 149.859 69.1346L168.411 70.6362C168.657 70.6571 168.905 70.6013 169.119 70.4765C169.333 70.3517 169.503 70.1639 169.606 69.9387C169.709 69.7136 169.741 69.4621 169.696 69.2185C169.651 68.9749 169.532 68.751 169.355 68.5776L157.052 56.5893C156.689 56.2502 156.592 55.6932 156.786 55.233L163.3 40.3385C163.736 39.3213 162.695 38.2799 161.678 38.7643L146.444 45.8846C146.032 46.0783 145.5 45.9815 145.136 45.6182Z" fill="url(#paint4_radial_1027_16105)"/>
<path d="M92.5326 153.247L81.0529 158.55C80.7623 158.696 80.4232 158.647 80.1811 158.454L68.6771 149.759C68.0717 149.299 67.2482 149.783 67.2967 150.51L68.3865 164.799C68.4108 165.114 68.2654 165.429 67.9748 165.598L57.0037 172.379C56.3498 172.791 56.5193 173.808 57.2943 173.954L71.0506 176.787C71.3897 176.86 71.6561 177.102 71.7287 177.441L74.6592 190.398C74.8287 191.173 75.8701 191.318 76.2576 190.616L82.3607 179.451C82.4353 179.311 82.5471 179.194 82.6838 179.113C82.8204 179.031 82.9768 178.989 83.1357 178.991L97.5701 179.451C98.3209 179.475 98.7326 178.604 98.2725 178.022L88.9725 166.906C88.7545 166.664 88.7061 166.325 88.8271 166.01L93.7193 154.336C93.9858 153.634 93.235 152.908 92.5326 153.247Z" fill="#1560BD"/>
<path d="M45.1608 28.2533L24.7444 19.1954C23.7272 18.7353 22.8311 19.7525 23.3639 20.7212L33.4631 39.3212C33.7053 39.7572 33.6569 40.29 33.342 40.629L11.4725 61.8447C10.8186 62.5228 11.3756 63.7337 12.3686 63.7822L39.203 59.0595C39.6147 59.0837 40.0022 59.3259 40.2201 59.7134L54.3397 85.5548C54.8725 86.4994 56.2287 86.4025 56.4467 85.4095L59.2077 60.2462C59.2617 60.0309 59.3819 59.838 59.5513 59.6946C59.7208 59.5513 59.9309 59.4647 60.1522 59.447L82.3123 55.8384C83.2569 55.7658 83.6201 54.6275 82.8936 53.9251L64.3662 39.6845C64.0998 39.4181 63.9545 39.0548 64.003 38.6915L67.3209 10.6462C67.4178 9.5806 66.0858 8.87826 65.335 9.60482L46.3959 28.0595C46.0811 28.3501 45.5967 28.4228 45.1608 28.2533Z" fill="#5D8EF0"/>
<path d="M77.5171 65.1144C86.5749 67.4394 95.7538 69.4496 105.126 70.2246C114.499 71.0722 124.017 70.3941 133.269 68.723C142.52 67.0035 151.602 64.848 160.757 63.1527C169.912 61.4574 179.115 60.1012 188.366 59.0355C192.992 58.5027 197.642 58.1152 202.268 57.6551C206.797 57.2191 211.277 57.3402 215.54 58.3332C219.73 59.3988 223.629 61.409 226.148 64.7027C228.691 67.948 229.901 72.1621 229.901 76.4973C229.95 85.2402 226.438 93.959 221.982 101.83C217.501 109.75 211.616 116.943 205.731 124.136C194.009 138.57 181.343 152.302 168.773 166.131C162.476 173.057 156.18 179.96 149.98 186.983C143.731 193.958 137.701 201.151 131.937 208.562C126.148 215.949 120.651 223.675 116.17 232.054C115.056 234.089 113.821 236.341 113.458 239.054C113.337 240.434 113.482 241.96 114.257 243.316C115.032 244.672 116.316 245.52 117.551 246.077C120.094 247.094 122.612 247.167 125.034 247.046C127.456 246.9 129.83 246.513 132.155 245.98C141.406 243.728 150.052 239.877 158.384 235.542C162.549 233.362 166.618 231.037 170.614 228.591C174.586 226.121 178.485 223.505 182.312 220.841C174.368 225.782 166.23 230.383 157.826 234.379C149.423 238.351 140.68 241.814 131.694 243.631C129.442 244.043 127.19 244.382 124.962 244.454C122.734 244.527 120.481 244.333 118.689 243.558C117.817 243.146 117.091 242.614 116.727 241.887C116.364 241.185 116.267 240.289 116.364 239.344C116.655 237.407 117.696 235.469 118.883 233.459C123.412 225.467 128.958 218.007 134.867 210.839C158.505 182.164 185.436 156.104 209.461 127.187C215.346 119.897 221.304 112.486 225.978 104.082C230.58 95.7512 234.382 86.4996 234.261 76.4004C234.212 71.4113 232.759 66.1558 229.466 62.0387C226.196 57.8488 221.304 55.4269 216.484 54.2644C211.616 53.1988 206.627 53.0777 201.856 53.6347C197.206 54.216 192.532 54.7004 187.882 55.3543C178.582 56.6621 169.33 58.2605 160.151 60.1738C150.973 62.1113 141.891 64.4363 132.809 66.398C123.751 68.384 114.499 69.4254 105.199 68.941C95.9234 68.5051 86.696 66.9308 77.5171 65.1144Z" fill="#5D8EF0"/>
<path d="M146.565 86.3544C173.811 92.6997 205.077 74.245 233.946 77.4903C244.966 78.9434 249.495 92.1184 238.911 112.995C218.131 148.766 187.809 169.885 176.62 182.987C191.66 174.559 222.563 152.35 244.045 131.45C276.377 100.45 270.395 61.6997 240.413 61.8208C230.362 60.852 210.914 65.6958 202.777 68.6747C194.76 71.8958 167.466 83.7872 146.565 86.3544Z" fill="url(#paint5_radial_1027_16105)"/>
</g>
<defs>
<linearGradient id="paint0_linear_1027_16105" x1="95.4639" y1="83.637" x2="79.0314" y2="100.072" gradientUnits="userSpaceOnUse">
<stop offset="0.262" stop-color="#F5F5F5"/>
<stop offset="0.466" stop-color="#EAEAEA"/>
<stop offset="0.822" stop-color="#CDCDCD"/>
<stop offset="0.989" stop-color="#BDBDBD"/>
</linearGradient>
<linearGradient id="paint1_linear_1027_16105" x1="277.024" y1="265.176" x2="260.551" y2="281.647" gradientUnits="userSpaceOnUse">
<stop offset="0.262" stop-color="#F5F5F5"/>
<stop offset="0.466" stop-color="#EAEAEA"/>
<stop offset="0.822" stop-color="#CDCDCD"/>
<stop offset="0.989" stop-color="#BDBDBD"/>
</linearGradient>
<linearGradient id="paint2_linear_1027_16105" x1="145.097" y1="145.61" x2="61.3054" y2="61.818" gradientUnits="userSpaceOnUse">
<stop stop-color="#688DE9" stop-opacity="0"/>
<stop offset="1" stop-color="#D7E2FC"/>
</linearGradient>
<linearGradient id="paint3_linear_1027_16105" x1="316.798" y1="317.311" x2="258.809" y2="259.322" gradientUnits="userSpaceOnUse">
<stop stop-color="#1A237E"/>
<stop offset="0.186" stop-color="#1D2A87" stop-opacity="0.814"/>
<stop offset="0.49" stop-color="#243DA0" stop-opacity="0.51"/>
<stop offset="0.873" stop-color="#2F5CC7" stop-opacity="0.127"/>
<stop offset="1" stop-color="#3367D6" stop-opacity="0"/>
</linearGradient>
<radialGradient id="paint4_radial_1027_16105" cx="0" cy="0" r="1" gradientUnits="userSpaceOnUse" gradientTransform="translate(126.859 55.9235) rotate(177.856) scale(35.805)">
<stop stop-color="#2E5FB7"/>
<stop offset="1" stop-color="#143787"/>
</radialGradient>
<radialGradient id="paint5_radial_1027_16105" cx="0" cy="0" r="1" gradientUnits="userSpaceOnUse" gradientTransform="translate(86.0599 169.784) rotate(149.304) scale(227.004 136.043)">
<stop stop-color="#5D8EF0" stop-opacity="0"/>
<stop offset="1" stop-color="#5D8EF0"/>
</radialGradient>
</defs>
</svg>
