<svg width="18" height="20" viewBox="0 0 18 20" fill="none" xmlns="http://www.w3.org/2000/svg">
<path d="M16 0H8C7.46957 0 6.96086 0.210714 6.58579 0.585786C6.21071 0.960859 6 1.46957 6 2V8H2C0.897 8 0 8.897 0 10V19C0 19.2652 0.105357 19.5196 0.292893 19.7071C0.48043 19.8946 0.734784 20 1 20H17C17.2652 20 17.5196 19.8946 17.7071 19.7071C17.8946 19.5196 18 19.2652 18 19V2C18 1.46957 17.7893 0.960859 17.4142 0.585786C17.0391 0.210714 16.5304 0 16 0ZM2 18V10H8V18H2ZM11 6H9V4H11V6ZM15 14H13V12H15V14ZM15 10H13V8H15V10ZM15 6H13V4H15V6Z" fill="#1560BD"/>
</svg>
