<svg width="1440" height="354" viewBox="0 0 1440 354" fill="none" xmlns="http://www.w3.org/2000/svg">
<g clip-path="url(#clip0_871_18971)">
<path d="M261 4.00781C121 -11.9922 38.8335 23.841 0.00012207 42.5077V354.008H1441.5V70.2991C1442.7 70.2986 1442.81 69.7521 1441.5 68.5077V70.2991C1433.51 70.3024 1377.17 46.2721 1365 42.5071C1274.5 14.5008 1045 48.5078 957 68.508C869 88.5083 750 84.5078 659.5 82.5078C569 80.5078 436 24.0078 261 4.00781Z" fill="#1560BD" fill-opacity="0.1"/>
<path d="M1152 82.5076C1292 66.5076 1402.67 63.8409 1441.5 82.5076V394.008H0V135.008C50.5 111.008 74 88.5076 164.5 60.5076C255 32.5076 340 22.509 428 42.5092C516 62.5095 727.5 155.008 818 153.008C908.5 151.008 977 102.508 1152 82.5076Z" fill="#1560BD" fill-opacity="0.2"/>
<path d="M269 108.003C129 92.0026 39.8334 159.837 1 178.504V420.004H1442.5V231.004C1392 207.004 1368.5 184.504 1278 156.504C1187.5 128.504 1102.5 118.505 1014.5 138.505C860.5 173.506 731.5 231.004 603 178.503C519.202 144.266 444 128.003 269 108.003Z" fill="#1560BD" fill-opacity="0.4"/>
<path d="M1152 212.507C1283.26 263.77 1402.67 193.841 1441.5 212.507V454.008H0V212.508C50.5 188.508 114.5 212.508 164.5 190.507C251.21 152.355 333.5 164.029 450 190.507C538 210.508 715.872 295.611 814 241.508C906.5 190.507 1035.5 167.008 1152 212.507Z" fill="#1560BD" fill-opacity="0.6"/>
<path d="M283.5 243.008C160.5 255.508 112.5 213.008 0 280.507V544.007H1441.5V302.507C1391 278.507 1266.5 302.507 1216.5 280.507C1129.79 242.354 1107.98 253.947 991.5 280.507C838 315.507 719.5 302.508 625 302.507C519.372 302.505 335.385 237.735 283.5 243.008Z" fill="#1560BD" fill-opacity="0.8"/>
</g>
<defs>
<clipPath id="clip0_871_18971">
<rect width="1440" height="354" fill="white"/>
</clipPath>
</defs>
</svg>
